<?xml version="1.0" standalone="no"?>
<!DOCTYPE svg PUBLIC "-//W3C//DTD SVG 1.1//EN"
  "http://www.w3.org/Graphics/SVG/1.1/DTD/svg11.dtd">
<svg width="65.5mm" height="67mm" viewBox="-30.5 -25 65.5 67" xmlns="http://www.w3.org/2000/svg" version="1.1">
	<title>svgOutput</title>
	<desc>made with tinkercad</desc>
<path d="M 30 4.440892164675075e-17 L 30 4.008991241455078 L 30 10.008991241455078 L 30 18.003000259399414 L 30 20 L 24.99700164794922 20 L 22.99799919128418 20 L 18.99700164794922 20 L 16.99799919128418 20 L 15 20 L 15 4.440892164675075e-17 L 16.99799919128418 4.440892164675075e-17 L 19.00200080871582 4.440892164675075e-17 L 22.99799919128418 4.440892164675075e-17 L 25.00200080871582 4.440892164675075e-17 L 29.003997802734375 4.440892164675075e-17 L 30 4.440892164675075e-17 M 10 -6 L 3.997999906539917 -6 L -2.002000093460083 -6 L -8.001999855041504 -6 L -10 -6 L -10 -21 L -8.001999855041504 -21 L -3.996999979019165 -21 L -2.002000093460083 -21 L 2.003000020980835 -21 L 3.997999906539917 -21 L 8.003000259399414 -21 L 10 -21 L 10 -18.999496459960938 L 10 -15.997998237609863 L 10 -9.997001647949219 L 10 -6 M 10 41 L 3.997999906539917 41 L -2.002000093460083 41 L -8.001999855041504 41 L -10 41 L -10 26 L -8.001999855041504 26 L -3.996999979019165 26 L -2.002000093460083 26 L 2.003000020980835 26 L 3.997999906539917 26 L 8.003000259399414 26 L 10 26 L 10 28.000503540039062 L 10 31.00200080871582 L 10 37.00200271606445 L 10 41 M 14 -24 L 34 -24 L 34 -4 L 14 -4 L 14 -24 M -10 20 L -10 4.440892164675075e-17 L 10 4.440892164675075e-17 L 10 20 L -10 20 M -29.5 20 L -29.5 4.440892164675075e-17 L -26.503000259399414 4.440892164675075e-17 L -24.49700164794922 4.440892164675075e-17 L -20.503000259399414 4.440892164675075e-17 L -18.49700164794922 4.440892164675075e-17 L -14.5 4.440892164675075e-17 L -14.5 7.997995853424072 L -14.5 13.99799633026123 L -14.5 15.994017601013184 L -14.5 19.997995376586914 L -14.5 20 L -14.501994132995605 20 L -15.500503540039062 20 L -18.49500846862793 20 L -18.50200080871582 20 L -20.498998641967773 20 L -21.500503540039062 20 L -24.50200080871582 20 L -26.503000259399414 20 L -29.5 20 M -16.999500274658203 17.003501892089844 L -16.49949836730957 16.00299644470215 L -16.49799919128418 16 L -17.499000549316406 13.996999740600586 L -17.501995086669922 13.996999740600586 L -18.503501892089844 13.996999740600586 L -19.500999450683594 13.996999740600586 L -20.500003814697266 15.994010925292969 L -20.503000259399414 16 L -19.500999450683594 18.003000259399414 L -19.494504928588867 18.003000259399414 L -17.499000549316406 18.003000259399414 L -16.999500274658203 17.003501892089844 M 3.717854610328988e-15 -12.003000259399414 L -2.002000093460083 -11.00100040435791 L -2.002000093460083 -9.996002197265625 L -2.002000093460083 -8.99899959564209 L 0 -7.998000144958496 L 2.003000020980835 -8.99899959564209 L 2.003000020980835 -11.00100040435791 L 3.717854610328988e-15 -12.003000259399414 M -20.00099754333496 8.996498107910156 L -20.503000259399414 10 L -19.500999450683594 12.003000259399414 L -18.498497009277344 12.003000259399414 L -18.495502471923828 12.003000259399414 L -17.499000549316406 12.003000259399414 L -16.998626708984375 11.001752853393555 L -16.49799919128418 10 L -17.499000549316406 7.997000217437744 L -18.502504348754883 7.997000217437744 L -19.500999450683594 7.997000217437744 L -20.00099754333496 8.996498107910156 M 7.003502368927002 -17.500499725341797 L 6 -18.00200080871582 L 3.997999906539917 -17.000999450683594 L 3.997999906539917 -15.996997833251953 L 3.997999906539917 -14.99899959564209 L 6 -13.996999740600586 L 8.003000259399414 -14.99899959564209 L 8.003000259399414 -17.000999450683594 L 7.003502368927002 -17.500499725341797 M -23.499000549316406 6.001999855041504 L -22.49799919128418 4 L -23.499000549316406 1.996999979019165 L -25.500999450683594 1.996999979019165 L -26.503000259399414 4 L -25.500999450683594 6.001999855041504 L -24.496002197265625 6.001999855041504 L -23.499000549316406 6.001999855041504 M 6 -12.003000259399414 L 3.997999906539917 -11.00100040435791 L 3.997999906539917 -9.996002197265625 L 3.997999906539917 -8.99899959564209 L 6 -7.998000144958496 L 8.003000259399414 -8.99899959564209 L 8.003000259399414 -11.00100040435791 L 6 -12.003000259399414 M -7.443137699605397e-15 -18.00200080871582 L -2.002000093460083 -17.000999450683594 L -2.002000093460083 -15.996997833251953 L -2.002000093460083 -14.99899959564209 L -3.717854610328988e-15 -13.996999740600586 L 2.003000020980835 -14.99899959564209 L 2.003000020980835 -17.000999450683594 L -7.443137699605397e-15 -18.00200080871582 M -6 -12.003000259399414 L -8.001999855041504 -11.00100040435791 L -8.001999855041504 -8.99899959564209 L -6 -7.998000144958496 L -3.996999979019165 -8.99899959564209 L -3.996999979019165 -11.00100040435791 L -6 -12.003000259399414 M -6 -18.00200080871582 L -8.001999855041504 -17.000999450683594 L -8.001999855041504 -14.99899959564209 L -6 -13.996999740600586 L -3.996999979019165 -14.99899959564209 L -3.996999979019165 -17.000999450683594 L -6 -18.00200080871582 M -22.999500274658203 17.003501892089844 L -22.49799919128418 16 L -23.499000549316406 13.996999740600586 L -24.503501892089844 13.996999740600586 L -25.500999450683594 13.996999740600586 L -26.503000259399414 16 L -25.500999450683594 18.003000259399414 L -23.499000549316406 18.003000259399414 L -22.999500274658203 17.003501892089844 M -25.500999450683594 7.997000217437744 L -26.503000259399414 10 L -25.500999450683594 12.003000259399414 L -24.495502471923828 12.003000259399414 L -23.499000549316406 12.003000259399414 L -22.998626708984375 11.001752853393555 L -22.49799919128418 10 L -23.499000549316406 7.997000217437744 L -24.502504348754883 7.997000217437744 L -25.500999450683594 7.997000217437744 M -6 34.99800109863281 L -8.001999855041504 35.999000549316406 L -8.001999855041504 38.000999450683594 L -6 39.00299835205078 L -3.996999979019165 38.000999450683594 L -3.996999979019165 35.999000549316406 L -6 34.99800109863281 M -17.499000549316406 6.001999855041504 L -16.49799919128418 4 L -17.499000549316406 1.996999979019165 L -19.500999450683594 1.996999979019165 L -20.503000259399414 4 L -19.500999450683594 6.001999855041504 L -18.496002197265625 6.001999855041504 L -17.499000549316406 6.001999855041504 M 23.999000549316406 13.998000144958496 L 22.99799919128418 16 L 23.999000549316406 18.003000259399414 L 26.000999450683594 18.003000259399414 L 27.003000259399414 16 L 26.000999450683594 13.998000144958496 L 24.996002197265625 13.998000144958496 L 23.999000549316406 13.998000144958496 M -6 28.99799919128418 L -8.001999855041504 29.999000549316406 L -8.001999855041504 32.000999450683594 L -6 33.00299835205078 L -3.996999979019165 32.000999450683594 L -3.996999979019165 29.999000549316406 L -6 28.99799919128418 M -1.4886275399210794e-14 34.99800109863281 L -2.002000093460083 35.999000549316406 L -2.002000093460083 37.00300216674805 L -2.002000093460083 38.000999450683594 L 0 39.00299835205078 L 2.003000020980835 38.000999450683594 L 2.003000020980835 35.999000549316406 L -1.4886275399210794e-14 34.99800109863281 M 0 28.99799919128418 L -2.002000093460083 29.999000549316406 L -2.002000093460083 31.003002166748047 L -2.002000093460083 32.000999450683594 L 7.435709220657977e-15 33.00299835205078 L 2.003000020980835 32.000999450683594 L 2.003000020980835 29.999000549316406 L 0 28.99799919128418 M 3.997999906539917 29.999000549316406 L 3.997999906539917 31.003002166748047 L 3.997999906539917 32.000999450683594 L 6 33.00299835205078 L 8.003000259399414 32.000999450683594 L 8.003000259399414 29.999000549316406 L 7.003502368927002 29.499500274658203 L 6 28.99799919128418 L 3.997999906539917 29.999000549316406 M 6 34.99800109863281 L 3.997999906539917 35.999000549316406 L 3.997999906539917 37.00300216674805 L 3.997999906539917 38.000999450683594 L 6 39.00299835205078 L 8.003000259399414 38.000999450683594 L 8.003000259399414 35.999000549316406 L 6 34.99800109863281 M 23.999000549316406 7.998000144958496 L 23.498750686645508 8.998497009277344 L 22.99799919128418 10 L 23.999000549316406 12.003000259399414 L 25.002504348754883 12.003000259399414 L 26.000999450683594 12.003000259399414 L 27.003000259399414 10 L 26.000999450683594 7.998000144958496 L 24.996002197265625 7.998000144958496 L 23.999000549316406 7.998000144958496 M 17.498750686645508 8.998497009277344 L 16.99799919128418 10 L 17.999000549316406 12.003000259399414 L 19.002504348754883 12.003000259399414 L 20.000999450683594 12.003000259399414 L 21.003000259399414 10 L 20.000999450683594 7.998000144958496 L 18.996002197265625 7.998000144958496 L 17.999000549316406 7.998000144958496 L 17.498750686645508 8.998497009277344 M 17.999000549316406 13.998000144958496 L 16.99799919128418 16 L 17.999000549316406 18.003000259399414 L 20.000999450683594 18.003000259399414 L 21.003000259399414 16 L 20.000999450683594 13.998000144958496 L 18.996002197265625 13.998000144958496 L 17.999000549316406 13.998000144958496 M 17.999000549316406 1.996999979019165 L 17.498626708984375 2.9982473850250244 L 16.99799919128418 4 L 17.999000549316406 6.002999782562256 L 19.002504348754883 6.002999782562256 L 20.000999450683594 6.002999782562256 L 21.003000259399414 4 L 20.000999450683594 1.996999979019165 L 17.999000549316406 1.996999979019165 M 26.000999450683594 6.002999782562256 L 27.003000259399414 4 L 26.000999450683594 1.996999979019165 L 23.999000549316406 1.996999979019165 L 23.498626708984375 2.9982473850250244 L 22.99799919128418 4 L 23.999000549316406 6.002999782562256 L 25.002504348754883 6.002999782562256 L 26.000999450683594 6.002999782562256 z" fill="none" stroke="rgb(0,0,255)" stroke-width="0.01mm" />
</svg>